{"accessors":[{"name":"C______-Mesh_positions","componentType":5126,"count":117,"min":[-11.90369987487793,-2.9147019386291504,-0.7498999834060669],"max":[12.096400260925293,7.419402122497559,1.1540000438690186],"type":"VEC3","bufferView":0,"byteOffset":0},{"name":"C______-Mesh_normals","componentType":5126,"count":117,"min":[-1,-1,-1],"max":[1,1,1],"type":"VEC3","bufferView":0,"byteOffset":15672},{"name":"C______-Mesh_texcoords","componentType":5126,"count":117,"min":[-5.200900077819824,-1.1495000123977661],"max":[5.133200168609619,2.281399965286255],"type":"VEC2","bufferView":1,"byteOffset":0},{"name":"C______-Mesh_0_indices","componentType":5123,"count":324,"min":[0],"max":[116],"type":"SCALAR","bufferView":2,"byteOffset":0},{"name":"_C____-Mesh_positions","componentType":5126,"count":36,"min":[-5.846800804138184,-5.005099773406982,-5.938499927520752],"max":[6.010200023651123,-4.469099044799805,6.3531999588012695],"type":"VEC3","bufferView":0,"byteOffset":1404},{"name":"_C____-Mesh_normals","componentType":5126,"count":36,"min":[-1,0,-1],"max":[1,0,0.9969000220298767],"type":"VEC3","bufferView":0,"byteOffset":17076},{"name":"_C____-Mesh_texcoords","componentType":5126,"count":36,"min":[-5.0117998123168945,0],"max":[5.655799865722656,1],"type":"VEC2","bufferView":1,"byteOffset":936},{"name":"_C____-Mesh_0_indices","componentType":5123,"count":60,"min":[0],"max":[35],"type":"SCALAR","bufferView":2,"byteOffset":648},{"name":"P-Mesh_positions","componentType":5126,"count":128,"min":[-4.658201217651367,-7.167600154876709,0.11020000278949738],"max":[4.154201984405518,6.3379998207092285,9.366800308227539],"type":"VEC3","bufferView":0,"byteOffset":1836},{"name":"P-Mesh_normals","componentType":5126,"count":128,"min":[0,0,-1],"max":[0,0,1],"type":"VEC3","bufferView":0,"byteOffset":17508},{"name":"P-Mesh_texcoords","componentType":5126,"count":128,"min":[0,0],"max":[1,1],"type":"VEC2","bufferView":1,"byteOffset":1224},{"name":"P-Mesh_0_indices","componentType":5123,"count":300,"min":[0],"max":[127],"type":"SCALAR","bufferView":2,"byteOffset":768},{"name":"C____-Mesh_positions","componentType":5126,"count":196,"min":[-4.156198978424072,-7.9766011238098145,-4.004700183868408],"max":[4.249101161956787,9.015399932861328,6.9822001457214355],"type":"VEC3","bufferView":0,"byteOffset":3372},{"name":"C____-Mesh_normals","componentType":5126,"count":196,"min":[-1,-1,-1],"max":[1,1,1],"type":"VEC3","bufferView":0,"byteOffset":19044},{"name":"C____-Mesh_texcoords","componentType":5126,"count":196,"min":[0,0],"max":[1,1],"type":"VEC2","bufferView":1,"byteOffset":2248},{"name":"C____-Mesh_0_indices","componentType":5123,"count":96,"min":[0],"max":[35],"type":"SCALAR","bufferView":2,"byteOffset":1368},{"name":"C____-Mesh_1_indices","componentType":5123,"count":264,"min":[36],"max":[131],"type":"SCALAR","bufferView":2,"byteOffset":1560},{"name":"C____-Mesh_2_indices","componentType":5123,"count":246,"min":[132],"max":[195],"type":"SCALAR","bufferView":2,"byteOffset":2088},{"name":"P______-Mesh_positions","componentType":5126,"count":364,"min":[-57.72129821777344,-7.62739896774292,-6.351799964904785],"max":[57.91400146484375,7.419402122497559,7.2546000480651855],"type":"VEC3","bufferView":0,"byteOffset":5724},{"name":"P______-Mesh_normals","componentType":5126,"count":364,"min":[-1,-1,-1],"max":[1,1,1],"type":"VEC3","bufferView":0,"byteOffset":21396},{"name":"P______-Mesh_texcoords","componentType":5126,"count":364,"min":[-5.200900077819824,0],"max":[5.133200168609619,2.281399965286255],"type":"VEC2","bufferView":1,"byteOffset":3816},{"name":"P______-Mesh_0_indices","componentType":5123,"count":96,"min":[0],"max":[51],"type":"SCALAR","bufferView":2,"byteOffset":2580},{"name":"P______-Mesh_1_indices","componentType":5123,"count":60,"min":[52],"max":[91],"type":"SCALAR","bufferView":2,"byteOffset":2772},{"name":"P______-Mesh_2_indices","componentType":5123,"count":96,"min":[92],"max":[143],"type":"SCALAR","bufferView":2,"byteOffset":2892},{"name":"P______-Mesh_3_indices","componentType":5123,"count":90,"min":[144],"max":[203],"type":"SCALAR","bufferView":2,"byteOffset":3084},{"name":"P______-Mesh_4_indices","componentType":5123,"count":264,"min":[204],"max":[363],"type":"SCALAR","bufferView":2,"byteOffset":3264},{"name":"P____-Mesh_positions","componentType":5126,"count":50,"min":[-3.285698890686035,-7.9766011238098145,-3.1342999935150146],"max":[3.3787009716033936,8.83320140838623,6.9822001457214355],"type":"VEC3","bufferView":0,"byteOffset":10092},{"name":"P____-Mesh_normals","componentType":5126,"count":50,"min":[0,0,0],"max":[0,1,1],"type":"VEC3","bufferView":0,"byteOffset":25764},{"name":"P____-Mesh_texcoords","componentType":5126,"count":50,"min":[0,0],"max":[1,1],"type":"VEC2","bufferView":1,"byteOffset":6728},{"name":"P____-Mesh_0_indices","componentType":5123,"count":36,"min":[0],"max":[15],"type":"SCALAR","bufferView":2,"byteOffset":3792},{"name":"P____-Mesh_1_indices","componentType":5123,"count":90,"min":[16],"max":[49],"type":"SCALAR","bufferView":2,"byteOffset":3864},{"name":"P________-Mesh_positions","componentType":5126,"count":16,"min":[-6.011499881744385,-4.65939998626709,-6.351799964904785],"max":[6.174901008605957,6.728001117706299,6.766499996185303],"type":"VEC3","bufferView":0,"byteOffset":10692},{"name":"P________-Mesh_normals","componentType":5126,"count":16,"min":[0,0,-1],"max":[0,0,1],"type":"VEC3","bufferView":0,"byteOffset":26364},{"name":"P________-Mesh_texcoords","componentType":5126,"count":16,"min":[0.06040000170469284,0.21119999885559082],"max":[0.5411999821662903,0.6205000281333923],"type":"VEC2","bufferView":1,"byteOffset":7128},{"name":"P________-Mesh_0_indices","componentType":5123,"count":24,"min":[0],"max":[15],"type":"SCALAR","bufferView":2,"byteOffset":4044},{"name":"C-Mesh_positions","componentType":5126,"count":297,"min":[-4.658201217651367,-13.484399795532227,-4.495699882507324],"max":[4.154201984405518,6.3379998207092285,9.366800308227539],"type":"VEC3","bufferView":0,"byteOffset":10884},{"name":"C-Mesh_normals","componentType":5126,"count":297,"min":[-1,-1,-1],"max":[1,1,1],"type":"VEC3","bufferView":0,"byteOffset":26556},{"name":"C-Mesh_texcoords","componentType":5126,"count":297,"min":[0,0],"max":[1,1],"type":"VEC2","bufferView":1,"byteOffset":7256},{"name":"C-Mesh_0_indices","componentType":5123,"count":942,"min":[0],"max":[296],"type":"SCALAR","bufferView":2,"byteOffset":4092},{"name":"C1-Mesh_positions","componentType":5126,"count":78,"min":[-0.6798020005226135,-9.636301040649414,-4.736199855804443],"max":[4.320498943328857,-4.969200134277344,0.26409998536109924],"type":"VEC3","bufferView":0,"byteOffset":14448},{"name":"C1-Mesh_normals","componentType":5126,"count":78,"min":[-1,-0.48429998755455017,-1],"max":[1,0.5705000162124634,1],"type":"VEC3","bufferView":0,"byteOffset":30120},{"name":"C1-Mesh_texcoords","componentType":5126,"count":78,"min":[0,0],"max":[1,1],"type":"VEC2","bufferView":1,"byteOffset":9632},{"name":"C1-Mesh_0_indices","componentType":5123,"count":216,"min":[0],"max":[77],"type":"SCALAR","bufferView":2,"byteOffset":5976},{"name":"Cube-Mesh_positions","componentType":5126,"count":24,"min":[-1,-1,-1],"max":[1,1,1.0000009536743164],"type":"VEC3","bufferView":0,"byteOffset":15384},{"name":"Cube-Mesh_normals","componentType":5126,"count":24,"min":[-1,-1,-1],"max":[1,1,1],"type":"VEC3","bufferView":0,"byteOffset":31056},{"name":"Cube-Mesh_0_indices","componentType":5123,"count":36,"min":[0],"max":[23],"type":"SCALAR","bufferView":2,"byteOffset":6408}],"asset":{"generator":"obj2gltf","version":"2.0"},"buffers":[{"name":"untitled","byteLength":262108,"uri":"data:application/octet-stream;base64,"}],"bufferViews":[{"name":"bufferView_0","buffer":0,"byteLength":31344,"byteOffset":0,"byteStride":12,"target":34962},{"name":"bufferView_1","buffer":0,"byteLength":10256,"byteOffset":31344,"byteStride":8,"target":34962},{"name":"bufferView_2","buffer":0,"byteLength":6480,"byteOffset":41600,"target":34963},{"buffer":0,"byteOffset":48080,"byteLength":3298},{"buffer":0,"byteOffset":51378,"byteLength":210730}],"images":[{"name":"ref2","mimeType":"image/jpeg","bufferView":3},{"name":"irs","mimeType":"image/jpeg","bufferView":4}],"materials":[{"name":"05___Default","pbrMetallicRoughness":{"baseColorFactor":[0.5882,0.5882,0.5882,1],"metallicFactor":0,"roughnessFactor":0.990196078},"emissiveFactor":[0,0,0],"alphaMode":"OPAQUE","doubleSided":false},{"name":"03___Default","pbrMetallicRoughness":{"baseColorFactor":[0.9059,0.5529,0.098,1],"metallicFactor":0,"roughnessFactor":0.990196078},"emissiveFactor":[0,0,0],"alphaMode":"OPAQUE","doubleSided":false},{"name":"01___Default","pbrMetallicRoughness":{"baseColorFactor":[1,1,1,1],"metallicFactor":0,"roughnessFactor":0.990196078},"emissiveFactor":[0,0,0],"alphaMode":"OPAQUE","doubleSided":false},{"name":"04___Default","pbrMetallicRoughness":{"baseColorFactor":[0.2745,0.2745,0.2745,1],"metallicFactor":0,"roughnessFactor":0.990196078},"emissiveFactor":[0,0,0],"alphaMode":"OPAQUE","doubleSided":false},{"name":"07___Default","pbrMetallicRoughness":{"baseColorTexture":{"index":0},"baseColorFactor":[1,1,1,1],"metallicFactor":0,"roughnessFactor":0.990196078},"emissiveFactor":[0,0,0],"alphaMode":"OPAQUE","doubleSided":false},{"name":"06___Default","pbrMetallicRoughness":{"baseColorTexture":{"index":1},"baseColorFactor":[1,1,1,1],"metallicFactor":0,"roughnessFactor":0.990196078},"emissiveFactor":[0,0,0],"alphaMode":"OPAQUE","doubleSided":false},{"name":"02___Default","pbrMetallicRoughness":{"baseColorFactor":[0.9412,0.7255,0.1451,1],"metallicFactor":0,"roughnessFactor":0.990196078},"emissiveFactor":[0,0,0],"alphaMode":"OPAQUE","doubleSided":false},{"name":"Material","pbrMetallicRoughness":{"baseColorFactor":[0.64,0.64,0.64,1],"metallicFactor":0,"roughnessFactor":0.903921569},"emissiveFactor":[0,0,0],"alphaMode":"OPAQUE","doubleSided":false}],"meshes":[{"name":"C______-Mesh","primitives":[{"attributes":{"POSITION":0,"NORMAL":1,"TEXCOORD_0":2},"indices":3,"material":0,"mode":4}]},{"name":"_C____-Mesh","primitives":[{"attributes":{"POSITION":4,"NORMAL":5,"TEXCOORD_0":6},"indices":7,"material":1,"mode":4}]},{"name":"P-Mesh","primitives":[{"attributes":{"POSITION":8,"NORMAL":9,"TEXCOORD_0":10},"indices":11,"material":2,"mode":4}]},{"name":"C____-Mesh","primitives":[{"attributes":{"POSITION":12,"NORMAL":13,"TEXCOORD_0":14},"indices":15,"material":3,"mode":4},{"attributes":{"POSITION":12,"NORMAL":13,"TEXCOORD_0":14},"indices":16,"material":0,"mode":4},{"attributes":{"POSITION":12,"NORMAL":13,"TEXCOORD_0":14},"indices":17,"material":4,"mode":4}]},{"name":"P______-Mesh","primitives":[{"attributes":{"POSITION":18,"NORMAL":19,"TEXCOORD_0":20},"indices":21,"material":5,"mode":4},{"attributes":{"POSITION":18,"NORMAL":19,"TEXCOORD_0":20},"indices":22,"material":3,"mode":4},{"attributes":{"POSITION":18,"NORMAL":19,"TEXCOORD_0":20},"indices":23,"material":0,"mode":4},{"attributes":{"POSITION":18,"NORMAL":19,"TEXCOORD_0":20},"indices":24,"material":1,"mode":4},{"attributes":{"POSITION":18,"NORMAL":19,"TEXCOORD_0":20},"indices":25,"material":6,"mode":4}]},{"name":"P____-Mesh","primitives":[{"attributes":{"POSITION":26,"NORMAL":27,"TEXCOORD_0":28},"indices":29,"material":3,"mode":4},{"attributes":{"POSITION":26,"NORMAL":27,"TEXCOORD_0":28},"indices":30,"material":0,"mode":4}]},{"name":"P________-Mesh","primitives":[{"attributes":{"POSITION":31,"NORMAL":32,"TEXCOORD_0":33},"indices":34,"material":5,"mode":4}]},{"name":"C-Mesh","primitives":[{"attributes":{"POSITION":35,"NORMAL":36,"TEXCOORD_0":37},"indices":38,"material":2,"mode":4}]},{"name":"C1-Mesh","primitives":[{"attributes":{"POSITION":39,"NORMAL":40,"TEXCOORD_0":41},"indices":42,"material":6,"mode":4}]},{"name":"Cube-Mesh","primitives":[{"attributes":{"POSITION":43,"NORMAL":44},"indices":45,"material":7,"mode":4}]}],"nodes":[{"name":"C______","mesh":0},{"name":"_C____","mesh":1},{"name":"P","mesh":2},{"name":"C____","mesh":3},{"name":"P______","mesh":4},{"name":"P____","mesh":5},{"name":"P________","mesh":6},{"name":"C","mesh":7},{"name":"C1","mesh":8},{"name":"Cube","mesh":9}],"samplers":[{"magFilter":9729,"minFilter":9986,"wrapS":10497,"wrapT":10497}],"scene":0,"scenes":[{"nodes":[0,1,2,3,4,5,6,7,8,9]}],"textures":[{"name":"ref2","sampler":0,"source":0},{"name":"irs","sampler":0,"source":1}]}
